<svg width="184" height="73" viewBox="0 0 184 73" fill="none" xmlns="http://www.w3.org/2000/svg">
<g clip-path="url(#clip0_379_3588)">
<path d="M79.0888 18.1985C79.0888 17.8853 79.0888 17.5721 79.047 17.2241L70.8551 19.8202C70.6179 20.2814 70.5143 20.7996 70.5558 21.3166C70.6393 26.0146 70.5558 30.7126 70.5558 35.4036V38.118H64.9739V21.7063C62.1481 22.6181 59.3224 23.5507 56.5175 24.4903C56.5175 27.3718 56.5175 30.2532 56.5175 33.1416V38.111H51.1931V26.3974C48.3256 27.4414 45.4789 28.5271 42.6601 29.6895V38.2572H37.2731C34.2942 38.2572 31.3153 38.3268 28.3364 38.2572C28.3364 41.1386 28.406 51.2167 28.406 51.2167C26.2067 51.2167 24.1187 51.3699 22.0585 51.2167C16.5949 50.7365 12.2449 48.3144 10.2265 43.0457C9.24517 40.4983 9.04333 37.6378 8.61876 34.9025C8.51864 34.0292 8.5 33.1484 8.56309 32.2716C5.77909 33.4641 2.96493 34.6241 0.120605 35.7516V35.8908C0.264044 38.2277 0.545253 40.554 0.962766 42.8578C2.75149 51.2098 7.67221 56.5968 16.0242 58.7614C22.7893 60.5153 29.6658 59.687 36.5075 59.7358C36.6119 59.7358 36.7093 59.6105 37.0852 59.3599V46.7484H55.4526C57.5406 46.7484 59.7748 47.2982 60.7283 44.556C61.8349 45.5861 62.2595 46.8528 63.909 46.7902C67.7161 46.6579 71.565 46.7902 75.3512 46.7345C75.8245 46.7345 76.5136 46.6858 76.7433 46.3865C77.829 44.9945 79.1723 43.7626 79.1444 41.6189C79.0192 33.8098 79.0957 26.0076 79.0888 18.1985Z" fill="white"/>
<path d="M181.484 39.6353C181.15 38.5286 180.51 38.2433 179.396 38.2433C175.22 38.3059 171.003 38.2433 166.806 38.2433H164.022C164.022 34.0673 163.876 30.0514 164.084 26.0911C164.189 24.1702 165.518 23.509 167.787 23.6621C168.553 25.6874 169.283 27.7824 170.153 29.8147C170.383 30.3437 171.023 31.0397 171.511 31.0675C173.905 31.1998 176.313 31.1302 178.659 31.1302C178.742 30.803 178.833 30.6569 178.791 30.5594C177.072 26.0006 175.36 21.4349 173.571 16.9039C173.431 16.683 173.242 16.4976 173.019 16.3623C172.795 16.227 172.544 16.1456 172.283 16.1244C169.87 16.0163 167.453 16.0581 165.045 16.2497C159.776 16.8413 155.475 20.7041 155.454 26.4878C155.454 29.6616 155.398 32.8354 155.356 36.0091C155.356 36.7051 155.287 37.4011 155.252 38.0971H146.552V3.45023C144.179 5.10671 141.812 6.72839 139.307 8.21087C138.68 8.58671 138.04 8.94863 137.4 9.31055C137.448 18.1358 137.4 26.9611 137.4 35.7586V38.2085C134.88 38.2085 132.716 38.3477 130.572 38.1667C128.428 37.9858 126.445 37.1366 126.716 34.0534C126.897 31.9654 126.751 29.8774 126.751 27.7894C126.751 24.4207 126.751 21.0567 126.751 17.6974C126.751 17.0014 126.793 16.194 125.756 16.2288C121.44 16.3541 117.056 16.0757 112.838 16.7578C107.66 17.5999 103.79 20.6066 102.822 26.119C102.502 28.7673 102.367 31.4349 102.419 34.1021C102.342 36.6216 101.535 37.8744 99.1197 38.125C96.8786 38.3546 94.5957 38.1737 92.0414 38.1737V2.25311C89.313 4.26455 86.4734 6.11591 83.5989 7.91159C83.6267 20.1682 83.6267 32.4178 83.6267 44.6743C83.6267 45.2938 83.6963 45.9062 83.745 46.644C84.4967 46.644 85.137 46.7414 85.7356 46.7414C89.2156 46.7414 92.7374 46.6718 96.2313 46.7414C98.709 46.811 100.881 46.296 102.774 44.1245C103.734 47.1103 106.066 46.7414 108.293 46.7275C112.427 46.7275 116.561 46.6579 120.689 46.7275C123.02 46.7693 125.352 47.0407 126.375 44.027C128.157 46.2194 130.238 46.811 132.639 46.7275C135.625 46.637 138.618 46.7275 141.604 46.7275H145.842V46.6022H183.746C182.96 44.1871 182.18 41.9251 181.484 39.6353ZM117.661 38.1389H110.771C110.938 34.7006 110.861 31.3529 111.334 28.0886C111.696 25.5482 114.118 24.4694 117.675 24.7896L117.661 38.1389Z" fill="white"/>
<path d="M21.9892 63.898C20.8037 63.9499 19.684 64.4573 18.8633 65.3143C18.0426 66.1713 17.5841 67.3119 17.5835 68.4985C17.6377 69.6481 18.1418 70.7303 18.9868 71.5115C19.8319 72.2928 20.9502 72.7105 22.1005 72.6745C23.2508 72.6321 24.3414 72.1515 25.1488 71.3312C25.9563 70.5108 26.4195 69.4127 26.4436 68.2619C26.4088 66.0556 24.1746 63.8562 21.9892 63.898Z" fill="white"/>
<path d="M31.2667 63.8979C30.1182 63.9712 29.0338 64.4528 28.2093 65.2556C27.3848 66.0584 26.8744 67.1296 26.7705 68.2757C26.8135 69.4588 27.3117 70.5797 28.1611 71.4044C29.0104 72.2291 30.1454 72.6941 31.3293 72.7023C31.9002 72.6977 32.4647 72.5807 32.9903 72.3578C33.5159 72.1348 33.9925 71.8105 34.3926 71.4032C34.7928 70.9959 35.1087 70.5138 35.3223 69.9843C35.5359 69.4548 35.6431 68.8884 35.6375 68.3175C35.5984 67.1661 35.1268 66.0717 34.3167 65.2526C33.5066 64.4335 32.4176 63.9497 31.2667 63.8979Z" fill="white"/>
<path d="M60.7493 9.19231C61.8982 9.1868 62.9982 8.72702 63.8093 7.91333C64.6204 7.09965 65.0766 5.99815 65.0784 4.84927C65.1028 3.69837 64.6706 2.58462 63.8764 1.7513C63.0822 0.917985 61.9905 0.432835 60.8398 0.401831C59.6533 0.399943 58.5142 0.867095 57.6707 1.70148C56.8272 2.53586 56.3477 3.66982 56.3367 4.85623C56.3758 6.00698 56.8556 7.0987 57.6768 7.90572C58.4981 8.71274 59.5981 9.17334 60.7493 9.19231Z" fill="white"/>
<path d="M61.2573 13.2638C61.2573 13.8499 61.3733 14.4302 61.5986 14.9712C61.824 15.5122 62.1542 16.0033 62.5702 16.4161C62.9862 16.8289 63.4798 17.1552 64.0226 17.3763C64.5654 17.5974 65.1466 17.7089 65.7326 17.7043C66.3017 17.6988 66.8642 17.5812 67.3878 17.3582C67.9114 17.1351 68.3859 16.811 68.7841 16.4044C69.1823 15.9978 69.4964 15.5166 69.7085 14.9885C69.9205 14.4603 70.0264 13.8956 70.02 13.3265C70.0364 12.7563 69.9359 12.1887 69.7246 11.6589C69.5134 11.129 69.1957 10.6481 68.7914 10.2457C68.3871 9.84335 67.9046 9.52808 67.3737 9.31936C66.8429 9.11063 66.2749 9.01288 65.7048 9.03213C64.5545 9.00594 63.4407 9.43651 62.6072 10.2296C61.7737 11.0227 61.2883 12.1137 61.2573 13.2638Z" fill="white"/>
<path d="M56.3365 17.7044C57.4895 17.7233 58.6037 17.2878 59.4384 16.4922C60.2731 15.6965 60.7614 14.6045 60.7978 13.4518C60.8164 12.8822 60.721 12.3146 60.5173 11.7823C60.3135 11.25 60.0056 10.7638 59.6114 10.3521C59.2172 9.94047 58.7448 9.61167 58.2219 9.38501C57.699 9.15836 57.136 9.03843 56.5661 9.03224C55.9801 9.00424 55.3943 9.09358 54.8433 9.29503C54.2922 9.49647 53.7869 9.80595 53.3571 10.2053C52.9273 10.6047 52.5815 11.0859 52.3402 11.6207C52.0988 12.1555 51.9667 12.7331 51.9517 13.3196C51.9816 14.4731 52.4532 15.5711 53.2691 16.387C54.085 17.2029 55.183 17.6745 56.3365 17.7044Z" fill="white"/>
</g>
<defs>
<clipPath id="clip0_379_3588">
<rect width="183.647" height="72.3005" fill="white" transform="translate(0.106689 0.401764)"/>
</clipPath>
</defs>
</svg>
